<?xml version="1.0" encoding="UTF-8" standalone="no"?>
<!DOCTYPE svg PUBLIC "-//W3C//DTD SVG 1.1//EN"
 "http://www.w3.org/Graphics/SVG/1.1/DTD/svg11.dtd">
<!-- Generated by graphviz version 2.38.0 (20140413.2041)
 -->
<!-- Title: %3 Pages: 1 -->
<svg width="688pt" height="260pt"
 viewBox="0.00 0.00 687.93 260.00" xmlns="http://www.w3.org/2000/svg" xmlns:xlink="http://www.w3.org/1999/xlink">
<g id="graph0" class="graph" transform="scale(1 1) rotate(0) translate(4 256)">
<title>%3</title>
<polygon fill="white" stroke="none" points="-4,4 -4,-256 683.934,-256 683.934,4 -4,4"/>
<!-- HorizontalPodAutoscaler -->
<g id="node1" class="node"><title>HorizontalPodAutoscaler</title>
<ellipse fill="none" stroke="black" cx="102.691" cy="-234" rx="102.882" ry="18"/>
<text text-anchor="middle" x="102.691" y="-230.3" font-family="Times New Roman,serif" font-size="14.00">HorizontalPodAutoscaler</text>
</g>
<!-- Deployment -->
<g id="node2" class="node"><title>Deployment</title>
<ellipse fill="none" stroke="black" cx="102.691" cy="-162" rx="54.6905" ry="18"/>
<text text-anchor="middle" x="102.691" y="-158.3" font-family="Times New Roman,serif" font-size="14.00">Deployment</text>
</g>
<!-- HorizontalPodAutoscaler&#45;&gt;Deployment -->
<g id="edge1" class="edge"><title>HorizontalPodAutoscaler&#45;&gt;Deployment</title>
<path fill="none" stroke="black" d="M102.691,-215.697C102.691,-207.983 102.691,-198.712 102.691,-190.112"/>
<polygon fill="black" stroke="black" points="106.191,-190.104 102.691,-180.104 99.191,-190.104 106.191,-190.104"/>
</g>
<!-- Pod -->
<g id="node3" class="node"><title>Pod</title>
<ellipse fill="none" stroke="black" stroke-dasharray="5,2" cx="264.691" cy="-90" rx="27" ry="18"/>
<text text-anchor="middle" x="264.691" y="-86.3" font-family="Times New Roman,serif" font-size="14.00">Pod</text>
</g>
<!-- Deployment&#45;&gt;Pod -->
<g id="edge2" class="edge"><title>Deployment&#45;&gt;Pod</title>
<path fill="none" stroke="black" stroke-dasharray="5,2" d="M134.697,-147.17C163.237,-134.838 204.775,-116.89 233.167,-104.621"/>
<polygon fill="black" stroke="black" points="234.827,-107.717 242.619,-100.537 232.051,-101.291 234.827,-107.717"/>
</g>
<!-- PersistentVolumeClaim -->
<g id="node8" class="node"><title>PersistentVolumeClaim</title>
<ellipse fill="none" stroke="black" cx="216.691" cy="-18" rx="94.7833" ry="18"/>
<text text-anchor="middle" x="216.691" y="-14.3" font-family="Times New Roman,serif" font-size="14.00">PersistentVolumeClaim</text>
</g>
<!-- Pod&#45;&gt;PersistentVolumeClaim -->
<g id="edge7" class="edge"><title>Pod&#45;&gt;PersistentVolumeClaim</title>
<path fill="none" stroke="black" d="M253.799,-73.1159C248.039,-64.7156 240.825,-54.196 234.294,-44.6708"/>
<polygon fill="black" stroke="black" points="237.09,-42.5601 228.548,-36.2921 231.317,-46.5188 237.09,-42.5601"/>
</g>
<!-- ServiceAccount -->
<g id="node9" class="node"><title>ServiceAccount</title>
<ellipse fill="none" stroke="black" cx="398.691" cy="-18" rx="68.7879" ry="18"/>
<text text-anchor="middle" x="398.691" y="-14.3" font-family="Times New Roman,serif" font-size="14.00">ServiceAccount</text>
</g>
<!-- Pod&#45;&gt;ServiceAccount -->
<g id="edge8" class="edge"><title>Pod&#45;&gt;ServiceAccount</title>
<path fill="none" stroke="black" d="M285.335,-78.2159C305.255,-67.81 335.897,-51.8026 360.303,-39.0532"/>
<polygon fill="black" stroke="black" points="362.073,-42.0773 369.316,-34.3449 358.832,-35.8729 362.073,-42.0773"/>
</g>
<!-- PodDisruptionBudget -->
<g id="node4" class="node"><title>PodDisruptionBudget</title>
<ellipse fill="none" stroke="black" cx="264.691" cy="-162" rx="89.8845" ry="18"/>
<text text-anchor="middle" x="264.691" y="-158.3" font-family="Times New Roman,serif" font-size="14.00">PodDisruptionBudget</text>
</g>
<!-- PodDisruptionBudget&#45;&gt;Pod -->
<g id="edge3" class="edge"><title>PodDisruptionBudget&#45;&gt;Pod</title>
<path fill="none" stroke="black" d="M264.691,-143.697C264.691,-135.983 264.691,-126.712 264.691,-118.112"/>
<polygon fill="black" stroke="black" points="268.191,-118.104 264.691,-108.104 261.191,-118.104 268.191,-118.104"/>
</g>
<!-- Ingress -->
<g id="node5" class="node"><title>Ingress</title>
<ellipse fill="none" stroke="black" cx="471.691" cy="-234" rx="37.0935" ry="18"/>
<text text-anchor="middle" x="471.691" y="-230.3" font-family="Times New Roman,serif" font-size="14.00">Ingress</text>
</g>
<!-- Service -->
<g id="node7" class="node"><title>Service</title>
<ellipse fill="none" stroke="black" cx="409.691" cy="-162" rx="37.8943" ry="18"/>
<text text-anchor="middle" x="409.691" y="-158.3" font-family="Times New Roman,serif" font-size="14.00">Service</text>
</g>
<!-- Ingress&#45;&gt;Service -->
<g id="edge4" class="edge"><title>Ingress&#45;&gt;Service</title>
<path fill="none" stroke="black" d="M457.622,-217.116C449.616,-208.076 439.436,-196.583 430.519,-186.515"/>
<polygon fill="black" stroke="black" points="432.954,-183.986 423.704,-178.821 427.714,-188.628 432.954,-183.986"/>
</g>
<!-- ServiceMonitor -->
<g id="node6" class="node"><title>ServiceMonitor</title>
<ellipse fill="none" stroke="black" cx="349.691" cy="-234" rx="66.8882" ry="18"/>
<text text-anchor="middle" x="349.691" y="-230.3" font-family="Times New Roman,serif" font-size="14.00">ServiceMonitor</text>
</g>
<!-- ServiceMonitor&#45;&gt;Service -->
<g id="edge5" class="edge"><title>ServiceMonitor&#45;&gt;Service</title>
<path fill="none" stroke="black" d="M364.215,-216.055C371.802,-207.204 381.207,-196.231 389.492,-186.566"/>
<polygon fill="black" stroke="black" points="392.272,-188.7 396.123,-178.829 386.957,-184.144 392.272,-188.7"/>
</g>
<!-- Service&#45;&gt;Pod -->
<g id="edge6" class="edge"><title>Service&#45;&gt;Pod</title>
<path fill="none" stroke="black" d="M384.102,-148.647C359.337,-136.691 321.777,-118.559 295.409,-105.83"/>
<polygon fill="black" stroke="black" points="296.773,-102.602 286.246,-101.406 293.73,-108.905 296.773,-102.602"/>
</g>
<!-- RoleBinding -->
<g id="node10" class="node"><title>RoleBinding</title>
<ellipse fill="none" stroke="black" cx="413.691" cy="-90" rx="55.7903" ry="18"/>
<text text-anchor="middle" x="413.691" y="-86.3" font-family="Times New Roman,serif" font-size="14.00">RoleBinding</text>
</g>
<!-- RoleBinding&#45;&gt;ServiceAccount -->
<g id="edge9" class="edge"><title>RoleBinding&#45;&gt;ServiceAccount</title>
<path fill="none" stroke="black" d="M409.983,-71.6966C408.33,-63.9827 406.344,-54.7125 404.501,-46.1124"/>
<polygon fill="black" stroke="black" points="407.874,-45.149 402.356,-36.1043 401.029,-46.6157 407.874,-45.149"/>
</g>
<!-- Role -->
<g id="node11" class="node"><title>Role</title>
<ellipse fill="none" stroke="black" stroke-dasharray="1,5" cx="513.691" cy="-18" rx="27.8951" ry="18"/>
<text text-anchor="middle" x="513.691" y="-14.3" font-family="Times New Roman,serif" font-size="14.00">Role</text>
</g>
<!-- RoleBinding&#45;&gt;Role -->
<g id="edge10" class="edge"><title>RoleBinding&#45;&gt;Role</title>
<path fill="none" stroke="black" d="M435.884,-73.4647C450.935,-62.9294 470.914,-48.944 486.858,-37.7831"/>
<polygon fill="black" stroke="black" points="489.059,-40.515 495.244,-31.913 485.044,-34.7803 489.059,-40.515"/>
</g>
<!-- ClusterRoleBinding -->
<g id="node12" class="node"><title>ClusterRoleBinding</title>
<ellipse fill="none" stroke="black" cx="598.691" cy="-90" rx="81.4863" ry="18"/>
<text text-anchor="middle" x="598.691" y="-86.3" font-family="Times New Roman,serif" font-size="14.00">ClusterRoleBinding</text>
</g>
<!-- ClusterRoleBinding&#45;&gt;ServiceAccount -->
<g id="edge11" class="edge"><title>ClusterRoleBinding&#45;&gt;ServiceAccount</title>
<path fill="none" stroke="black" d="M557.251,-74.496C525.489,-63.3793 481.558,-48.0035 447.99,-36.2548"/>
<polygon fill="black" stroke="black" points="448.969,-32.8893 438.374,-32.8892 446.657,-39.4963 448.969,-32.8893"/>
</g>
<!-- ClusterRole -->
<g id="node13" class="node"><title>ClusterRole</title>
<ellipse fill="none" stroke="black" stroke-dasharray="1,5" cx="613.691" cy="-18" rx="53.8905" ry="18"/>
<text text-anchor="middle" x="613.691" y="-14.3" font-family="Times New Roman,serif" font-size="14.00">ClusterRole</text>
</g>
<!-- ClusterRoleBinding&#45;&gt;ClusterRole -->
<g id="edge12" class="edge"><title>ClusterRoleBinding&#45;&gt;ClusterRole</title>
<path fill="none" stroke="black" d="M602.399,-71.6966C604.052,-63.9827 606.038,-54.7125 607.881,-46.1124"/>
<polygon fill="black" stroke="black" points="611.353,-46.6157 610.026,-36.1043 604.508,-45.149 611.353,-46.6157"/>
</g>
</g>
</svg>
